{
    "asset" : {
        "generator" : "Khronos glTF Blender I/O v1.1.46",
        "version" : "2.0"
    },
    "scene" : 0,
    "scenes" : [
        {
            "name" : "Scene",
            "nodes" : [
                0
            ]
        }
    ],
    "nodes" : [
        {
            "mesh" : 0,
            "name" : "Wall",
            "rotation" : [
                0.7071068286895752,
                0,
                0,
                0.7071067094802856
            ]
        }
    ],
    "materials" : [
        {
            "doubleSided" : true,
            "emissiveFactor" : [
                0,
                0,
                0
            ],
            "name" : "Wall Material",
            "normalTexture" : {
                "index" : 0,
                "texCoord" : 0
            },
            "pbrMetallicRoughness" : {
                "baseColorTexture" : {
                    "index" : 1,
                    "texCoord" : 0
                },
                "metallicRoughnessTexture" : {
                    "index" : 2,
                    "texCoord" : 0
                }
            }
        }
    ],
    "meshes" : [
        {
            "name" : "Wall",
            "primitives" : [
                {
                    "attributes" : {
                        "POSITION" : 0,
                        "NORMAL" : 1,
                        "TANGENT" : 2,
                        "TEXCOORD_0" : 3
                    },
                    "indices" : 4,
                    "material" : 0
                }
            ]
        }
    ],
    "textures" : [
        {
            "source" : 0
        },
        {
            "source" : 1
        },
        {
            "source" : 2
        }
    ],
    "images" : [
        {
            "mimeType" : "image/jpeg",
            "name" : "Normal",
            "uri" : "Textures/Normal.jpg"
        },
        {
            "mimeType" : "image/jpeg",
            "name" : "BaseColor",
            "uri" : "Textures/BaseColor.jpg"
        },
        {
            "mimeType" : "image/jpeg",
            "name" : "Metallic-Roughness",
            "uri" : "Textures/Metallic-Roughness.jpg"
        }
    ],
    "accessors" : [
        {
            "bufferView" : 0,
            "componentType" : 5126,
            "count" : 11677,
            "max" : [
                2,
                0.08782599866390228,
                0
            ],
            "min" : [
                -2,
                -0.08782599866390228,
                -2.5999999046325684
            ],
            "type" : "VEC3"
        },
        {
            "bufferView" : 1,
            "componentType" : 5126,
            "count" : 11677,
            "type" : "VEC3"
        },
        {
            "bufferView" : 2,
            "componentType" : 5126,
            "count" : 11677,
            "type" : "VEC4"
        },
        {
            "bufferView" : 3,
            "componentType" : 5126,
            "count" : 11677,
            "type" : "VEC2"
        },
        {
            "bufferView" : 4,
            "componentType" : 5123,
            "count" : 25314,
            "type" : "SCALAR"
        }
    ],
    "bufferViews" : [
        {
            "buffer" : 0,
            "byteLength" : 140124,
            "byteOffset" : 0
        },
        {
            "buffer" : 0,
            "byteLength" : 140124,
            "byteOffset" : 140124
        },
        {
            "buffer" : 0,
            "byteLength" : 186832,
            "byteOffset" : 280248
        },
        {
            "buffer" : 0,
            "byteLength" : 93416,
            "byteOffset" : 467080
        },
        {
            "buffer" : 0,
            "byteLength" : 50628,
            "byteOffset" : 560496
        }
    ],
    "buffers" : [
        {
            "byteLength" : 611124,
            "uri" : "SciFi_Wall.bin"
        }
    ]
}
